<mxfile host="app.diagrams.net" modified="2020-07-27T18:35:44.013Z" agent="5.0 (Windows)" etag="porAbrx95wJjwEvKXCtY" version="13.5.3" type="github">
  <diagram id="1So0yd6fELaQgzVndqCT" name="Page-1">
    <mxGraphModel dx="1422" dy="1681" grid="1" gridSize="10" guides="1" tooltips="1" connect="1" arrows="1" fold="1" page="1" pageScale="1" pageWidth="1100" pageHeight="850" math="0" shadow="0">
      <root>
        <mxCell id="0" />
        <mxCell id="1" parent="0" />
        <mxCell id="RISbmMf-dIWlrckFIFDv-31" value="&lt;b&gt;No Password&lt;/b&gt;" style="rounded=0;whiteSpace=wrap;html=1;verticalAlign=top;" vertex="1" parent="1">
          <mxGeometry x="190" y="110" width="180" height="260" as="geometry" />
        </mxCell>
        <mxCell id="RISbmMf-dIWlrckFIFDv-1" value="" style="rounded=0;whiteSpace=wrap;html=1;align=left;fillColor=#f8cecc;strokeColor=#b85450;" vertex="1" parent="1">
          <mxGeometry x="560" y="320" width="400" height="40" as="geometry" />
        </mxCell>
        <mxCell id="RISbmMf-dIWlrckFIFDv-2" value="" style="rounded=0;whiteSpace=wrap;html=1;align=left;" vertex="1" parent="1">
          <mxGeometry x="560" y="220" width="400" height="40" as="geometry" />
        </mxCell>
        <mxCell id="RISbmMf-dIWlrckFIFDv-3" value="" style="rounded=0;whiteSpace=wrap;html=1;align=left;" vertex="1" parent="1">
          <mxGeometry x="560" y="120" width="400" height="40" as="geometry" />
        </mxCell>
        <mxCell id="RISbmMf-dIWlrckFIFDv-4" value="User" style="shape=umlActor;verticalLabelPosition=bottom;verticalAlign=top;html=1;outlineConnect=0;" vertex="1" parent="1">
          <mxGeometry x="40" y="200" width="40" height="80" as="geometry" />
        </mxCell>
        <mxCell id="RISbmMf-dIWlrckFIFDv-5" value="Competent website" style="rounded=0;whiteSpace=wrap;html=1;" vertex="1" parent="1">
          <mxGeometry x="560" y="120" width="160" height="40" as="geometry" />
        </mxCell>
        <mxCell id="RISbmMf-dIWlrckFIFDv-6" value="Less-competent website" style="rounded=0;whiteSpace=wrap;html=1;" vertex="1" parent="1">
          <mxGeometry x="560" y="220" width="160" height="40" as="geometry" />
        </mxCell>
        <mxCell id="RISbmMf-dIWlrckFIFDv-7" value="Dubious website" style="rounded=0;whiteSpace=wrap;html=1;fontStyle=1;fillColor=#f8cecc;strokeColor=#b85450;" vertex="1" parent="1">
          <mxGeometry x="560" y="320" width="160" height="40" as="geometry" />
        </mxCell>
        <mxCell id="RISbmMf-dIWlrckFIFDv-8" value="&lt;b&gt;&lt;font style=&quot;font-size: 16px&quot;&gt;Password stored as&lt;br&gt;&lt;/font&gt;&lt;/b&gt;" style="text;html=1;strokeColor=none;fillColor=none;align=center;verticalAlign=middle;whiteSpace=wrap;rounded=0;" vertex="1" parent="1">
          <mxGeometry x="720" y="80" width="240" height="40" as="geometry" />
        </mxCell>
        <mxCell id="RISbmMf-dIWlrckFIFDv-9" value="&lt;div&gt;scrypt(&lt;font color=&quot;#660000&quot;&gt;0252a510e1bff27c...&lt;/font&gt;, Salt)&lt;/div&gt;&lt;div&gt;bcrypt(&lt;font color=&quot;#660000&quot;&gt;0252a510e1bff27c...&lt;/font&gt;, Salt)&lt;br&gt;&lt;/div&gt;" style="text;html=1;strokeColor=none;fillColor=none;align=center;verticalAlign=middle;whiteSpace=wrap;rounded=0;" vertex="1" parent="1">
          <mxGeometry x="720" y="120" width="240" height="40" as="geometry" />
        </mxCell>
        <mxCell id="RISbmMf-dIWlrckFIFDv-10" value="PBKDF2(HMACâˆ’SHA1, &lt;font color=&quot;#CC6600&quot;&gt;b77413a75e7e0b98...&lt;/font&gt;, Salt, ...)" style="text;html=1;strokeColor=none;fillColor=none;align=center;verticalAlign=middle;whiteSpace=wrap;rounded=0;" vertex="1" parent="1">
          <mxGeometry x="720" y="220" width="240" height="40" as="geometry" />
        </mxCell>
        <mxCell id="RISbmMf-dIWlrckFIFDv-11" value="&lt;div&gt;&lt;font color=&quot;#004C99&quot;&gt;1e2efafd437a565a... &lt;/font&gt;&lt;i&gt;(as plaintext)&lt;/i&gt;&lt;/div&gt;&lt;div&gt;MD5(&lt;font color=&quot;#004C99&quot;&gt;1e2efafd437a565a...&lt;/font&gt;)&lt;br&gt;&lt;/div&gt;" style="text;html=1;strokeColor=#b85450;fillColor=#f8cecc;align=center;verticalAlign=middle;whiteSpace=wrap;rounded=0;" vertex="1" parent="1">
          <mxGeometry x="720" y="320" width="240" height="40" as="geometry" />
        </mxCell>
        <mxCell id="RISbmMf-dIWlrckFIFDv-12" value="Competent website" style="rounded=0;whiteSpace=wrap;html=1;fontStyle=1" vertex="1" parent="1">
          <mxGeometry x="560" y="120" width="160" height="40" as="geometry" />
        </mxCell>
        <mxCell id="RISbmMf-dIWlrckFIFDv-13" value="Less-competent website" style="rounded=0;whiteSpace=wrap;html=1;fontStyle=1" vertex="1" parent="1">
          <mxGeometry x="560" y="220" width="160" height="40" as="geometry" />
        </mxCell>
        <mxCell id="RISbmMf-dIWlrckFIFDv-14" value="Password metadata (only) vault" style="shape=cylinder;whiteSpace=wrap;html=1;boundedLbl=1;backgroundOutline=1;" vertex="1" parent="1">
          <mxGeometry x="240" y="160" width="80" height="80" as="geometry" />
        </mxCell>
        <mxCell id="RISbmMf-dIWlrckFIFDv-15" value="&lt;div&gt;scrypt(Password, Salt1)&lt;/div&gt;&lt;div&gt;0252a510e1bff27c...&lt;br&gt;&lt;/div&gt;" style="endArrow=classic;html=1;entryX=0;entryY=0.5;entryDx=0;entryDy=0;fontColor=#660000;" edge="1" parent="1" source="RISbmMf-dIWlrckFIFDv-31" target="RISbmMf-dIWlrckFIFDv-12">
          <mxGeometry width="50" height="50" relative="1" as="geometry">
            <mxPoint x="480" y="450" as="sourcePoint" />
            <mxPoint x="530" y="400" as="targetPoint" />
          </mxGeometry>
        </mxCell>
        <mxCell id="RISbmMf-dIWlrckFIFDv-16" value="&lt;div&gt;scrypt(Password, Salt2)&lt;/div&gt;&lt;div&gt;b77413a75e7e0b98...&lt;br&gt;&lt;/div&gt;" style="endArrow=classic;html=1;entryX=0;entryY=0.5;entryDx=0;entryDy=0;fontColor=#CC6600;" edge="1" parent="1" source="RISbmMf-dIWlrckFIFDv-31" target="RISbmMf-dIWlrckFIFDv-13">
          <mxGeometry width="50" height="50" relative="1" as="geometry">
            <mxPoint x="480" y="450" as="sourcePoint" />
            <mxPoint x="530" y="400" as="targetPoint" />
          </mxGeometry>
        </mxCell>
        <mxCell id="RISbmMf-dIWlrckFIFDv-17" value="&lt;div&gt;scrypt(Password, Salt3)&lt;/div&gt;&lt;div&gt;1e2efafd437a565a...&lt;br&gt;&lt;/div&gt;" style="endArrow=classic;html=1;entryX=0;entryY=0.5;entryDx=0;entryDy=0;fontColor=#004C99;" edge="1" parent="1" source="RISbmMf-dIWlrckFIFDv-31" target="RISbmMf-dIWlrckFIFDv-7">
          <mxGeometry width="50" height="50" relative="1" as="geometry">
            <mxPoint x="480" y="450" as="sourcePoint" />
            <mxPoint x="530" y="400" as="targetPoint" />
          </mxGeometry>
        </mxCell>
        <mxCell id="RISbmMf-dIWlrckFIFDv-18" value="&lt;div&gt;Unlock with&lt;/div&gt;&lt;div&gt;master password&lt;/div&gt;&lt;div&gt;(optional)&lt;br&gt;&lt;/div&gt;" style="endArrow=classic;html=1;" edge="1" parent="1" source="RISbmMf-dIWlrckFIFDv-4" target="RISbmMf-dIWlrckFIFDv-14">
          <mxGeometry width="50" height="50" relative="1" as="geometry">
            <mxPoint x="400" y="420" as="sourcePoint" />
            <mxPoint x="450" y="370" as="targetPoint" />
          </mxGeometry>
        </mxCell>
        <mxCell id="RISbmMf-dIWlrckFIFDv-19" value="" style="html=1;verticalLabelPosition=bottom;align=center;labelBackgroundColor=#ffffff;verticalAlign=top;strokeWidth=2;shadow=0;dashed=0;shape=mxgraph.ios7.icons.locked;fillColor=#dae8fc;strokeColor=#6c8ebf;" vertex="1" parent="1">
          <mxGeometry x="296" y="160" width="24" height="30" as="geometry" />
        </mxCell>
        <mxCell id="RISbmMf-dIWlrckFIFDv-20" value="" style="shape=curlyBracket;whiteSpace=wrap;html=1;rounded=1;direction=south;" vertex="1" parent="1">
          <mxGeometry x="370" y="80" width="180" height="20" as="geometry" />
        </mxCell>
        <mxCell id="RISbmMf-dIWlrckFIFDv-21" value="Generates a password, as if No Password is a service itself, based on a user-provided password." style="text;html=1;strokeColor=none;fillColor=none;align=center;verticalAlign=bottom;whiteSpace=wrap;rounded=0;" vertex="1" parent="1">
          <mxGeometry x="370" y="-30" width="180" height="110" as="geometry" />
        </mxCell>
        <mxCell id="RISbmMf-dIWlrckFIFDv-22" value="Attacker" style="shape=umlActor;verticalLabelPosition=bottom;verticalAlign=top;html=1;outlineConnect=0;fillColor=#f8cecc;strokeColor=#b85450;fontColor=#FF0000;" vertex="1" parent="1">
          <mxGeometry x="930" y="360" width="40" height="80" as="geometry" />
        </mxCell>
        <mxCell id="RISbmMf-dIWlrckFIFDv-23" value="Compromises" style="endArrow=classic;html=1;fontColor=#FF0000;fillColor=#f8cecc;strokeColor=#b85450;" edge="1" parent="1" source="RISbmMf-dIWlrckFIFDv-22">
          <mxGeometry width="50" height="50" relative="1" as="geometry">
            <mxPoint x="570" y="360" as="sourcePoint" />
            <mxPoint x="830" y="360" as="targetPoint" />
          </mxGeometry>
        </mxCell>
        <mxCell id="RISbmMf-dIWlrckFIFDv-24" value="" style="endArrow=classic;html=1;fontColor=#FF0000;exitX=1;exitY=0.5;exitDx=0;exitDy=0;entryX=1;entryY=0.5;entryDx=0;entryDy=0;fillColor=#d5e8d4;strokeColor=#82b366;dashed=1;" edge="1" parent="1" source="RISbmMf-dIWlrckFIFDv-11" target="RISbmMf-dIWlrckFIFDv-10">
          <mxGeometry width="50" height="50" relative="1" as="geometry">
            <mxPoint x="1000" y="340" as="sourcePoint" />
            <mxPoint x="1000" y="240" as="targetPoint" />
            <Array as="points">
              <mxPoint x="1000" y="320" />
              <mxPoint x="1000" y="290" />
              <mxPoint x="1000" y="260" />
            </Array>
          </mxGeometry>
        </mxCell>
        <mxCell id="RISbmMf-dIWlrckFIFDv-25" value="" style="endArrow=classic;html=1;fontColor=#FF0000;exitX=1;exitY=0.5;exitDx=0;exitDy=0;entryX=1;entryY=0.5;entryDx=0;entryDy=0;fillColor=#d5e8d4;strokeColor=#82b366;dashed=1;" edge="1" parent="1" target="RISbmMf-dIWlrckFIFDv-9">
          <mxGeometry width="50" height="50" relative="1" as="geometry">
            <mxPoint x="960" y="340" as="sourcePoint" />
            <mxPoint x="960" y="240" as="targetPoint" />
            <Array as="points">
              <mxPoint x="1040" y="320" />
              <mxPoint x="1040" y="290" />
              <mxPoint x="1040" y="160" />
            </Array>
          </mxGeometry>
        </mxCell>
        <mxCell id="RISbmMf-dIWlrckFIFDv-26" value="" style="shape=curlyBracket;whiteSpace=wrap;html=1;rounded=1;direction=west;fillColor=#d5e8d4;strokeColor=#82b366;" vertex="1" parent="1">
          <mxGeometry x="1060" y="120" width="20" height="160" as="geometry" />
        </mxCell>
        <mxCell id="RISbmMf-dIWlrckFIFDv-27" value="&lt;div&gt;These passwords are not independent, as they have the same underlying password.&lt;/div&gt;&lt;div&gt;&lt;br&gt;&lt;/div&gt;&lt;div&gt;However, an attacker that compromises a service must attack scrypt to unlock the underlying password - a cryptographic algorithm that will be employed itself by competent websites.&lt;/div&gt;&lt;div&gt;&lt;br&gt;&lt;/div&gt;&lt;div&gt;There are likely additional possible attacks with this scheme, such as additional collisions, so the per-site passwords are weaker than pure scrypt (vs. other password managers).&lt;br&gt;&lt;/div&gt;" style="text;html=1;strokeColor=none;fillColor=none;align=center;verticalAlign=middle;whiteSpace=wrap;rounded=0;fontColor=#006600;" vertex="1" parent="1">
          <mxGeometry x="1080" y="120" width="160" height="160" as="geometry" />
        </mxCell>
        <mxCell id="RISbmMf-dIWlrckFIFDv-29" value="User-provided password" style="rounded=0;whiteSpace=wrap;html=1;" vertex="1" parent="1">
          <mxGeometry x="200" y="280" width="160" height="40" as="geometry" />
        </mxCell>
        <mxCell id="RISbmMf-dIWlrckFIFDv-30" value="Password" style="endArrow=classic;html=1;entryX=0;entryY=0.5;entryDx=0;entryDy=0;" edge="1" parent="1" source="RISbmMf-dIWlrckFIFDv-4" target="RISbmMf-dIWlrckFIFDv-29">
          <mxGeometry width="50" height="50" relative="1" as="geometry">
            <mxPoint x="590" y="450" as="sourcePoint" />
            <mxPoint x="640" y="400" as="targetPoint" />
          </mxGeometry>
        </mxCell>
        <mxCell id="RISbmMf-dIWlrckFIFDv-32" value="" style="shape=curlyBracket;whiteSpace=wrap;html=1;rounded=1;direction=north;" vertex="1" parent="1">
          <mxGeometry x="190" y="390" width="370" height="20" as="geometry" />
        </mxCell>
        <mxCell id="RISbmMf-dIWlrckFIFDv-33" value="&lt;div&gt;&lt;b&gt;No Password does not store any password at all.&lt;/b&gt;&lt;/div&gt;&lt;div&gt;&lt;br&gt;&lt;/div&gt;&lt;div&gt;It only stores the metadata required to generate a per-service password (cryptographic salt, length restrictions, etc.), allowing a per-service password to be generated on-demand, in conjunction with the user&#39;s password - provided on-demand.&lt;/div&gt;&lt;div&gt;&lt;br&gt;&lt;/div&gt;&lt;div&gt;This metadata is independent of the password, so it reveals no information about the per-service password at all.&amp;nbsp; Theoretically, this metadata is therefore safe to be kept as plaintext - although it is recommended to encrypt it with a master password for greater security.&lt;br&gt;&lt;/div&gt;" style="text;html=1;strokeColor=none;fillColor=none;align=center;verticalAlign=top;whiteSpace=wrap;rounded=0;" vertex="1" parent="1">
          <mxGeometry x="200" y="410" width="360" height="190" as="geometry" />
        </mxCell>
      </root>
    </mxGraphModel>
  </diagram>
</mxfile>
